<svg xmlns="http://www.w3.org/2000/svg" width="512" height="512" viewBox="0 0 512 512" role="img" aria-labelledby="title description">
  <title id="title">P4 A1 frame 0 idle master vector</title>
  <desc id="description">Round pink hero in a neutral right-facing idle pose on a flat magenta background.</desc>
  <rect width="512" height="512" fill="#FF00FF"/>

  <!-- Rear foot: hard-edged shadow plane, deliberately behind the body. -->
  <path d="M139 374 C109 395 103 423 122 438 C147 456 209 450 224 427 C239 403 210 378 176 370 Z" fill="#9F1835" stroke="#231A32" stroke-width="7" stroke-linejoin="round"/>
  <path d="M131 403 C151 391 181 389 202 401 C188 426 151 435 126 422 C123 416 125 409 131 403 Z" fill="#E83C4C"/>

  <!-- Far arm. -->
  <path d="M159 259 C125 244 95 256 86 278 C79 297 92 311 112 311 C137 311 161 292 173 272 Z" fill="#F27DA9" stroke="#231A32" stroke-width="7" stroke-linejoin="round"/>
  <path d="M91 285 C103 271 124 268 142 276 C130 290 111 298 96 295 Z" fill="#C93F75"/>

  <!-- Main clean geometry. -->
  <path d="M164 171 C198 127 265 111 324 133 C381 154 412 211 398 273 C389 315 357 351 310 369 C260 388 194 377 154 342 C111 304 105 238 131 199 C139 187 151 177 164 171 Z" fill="#F58AB4" stroke="#231A32" stroke-width="7" stroke-linejoin="round"/>

  <!-- Single hard shadow plane on body. -->
  <path d="M320 137 C373 157 404 211 397 268 C391 306 364 340 324 360 C298 373 270 378 244 375 C291 355 324 315 331 266 C339 211 332 170 304 139 C309 138 315 137 320 137 Z" fill="#D9588B"/>

  <!-- Highlight plane: no blur, no gradient. -->
  <path d="M184 178 C207 151 243 141 272 146 C249 153 226 167 210 190 C199 205 192 221 187 238 C170 226 167 199 184 178 Z" fill="#FFC5DD"/>

  <!-- Near arm, held naturally in neutral idle. -->
  <path d="M388 252 C416 240 442 253 450 276 C456 293 445 308 427 310 C405 312 385 296 371 278 Z" fill="#F58AB4" stroke="#231A32" stroke-width="7" stroke-linejoin="round"/>
  <path d="M391 273 C406 263 425 266 437 279 C432 292 418 299 403 296 Z" fill="#D9588B"/>

  <!-- Face features. -->
  <ellipse cx="289" cy="224" rx="15" ry="34" fill="#25254C" stroke="#231A32" stroke-width="4"/>
  <ellipse cx="335" cy="226" rx="15" ry="34" fill="#25254C" stroke="#231A32" stroke-width="4"/>
  <ellipse cx="294" cy="211" rx="5" ry="12" fill="#FFFFFF"/>
  <ellipse cx="340" cy="213" rx="5" ry="12" fill="#FFFFFF"/>
  <ellipse cx="255" cy="281" rx="15" ry="8" fill="#E95079"/>
  <ellipse cx="360" cy="282" rx="15" ry="8" fill="#E95079"/>
  <path d="M313 282 C319 288 328 288 334 282" fill="none" stroke="#7A3159" stroke-width="5" stroke-linecap="round"/>

  <!-- Front foot: largest contact shape, flat red with a distinct highlight. -->
  <path d="M281 367 C315 347 367 355 390 380 C410 403 396 435 364 445 C325 458 268 449 255 425 C246 406 257 383 281 367 Z" fill="#B61E38" stroke="#231A32" stroke-width="7" stroke-linejoin="round"/>
  <path d="M286 378 C314 364 353 369 372 388 C379 396 377 405 369 411 C343 425 297 421 275 407 C270 396 276 385 286 378 Z" fill="#F0434F"/>
  <path d="M298 383 C314 375 333 377 344 383 C337 391 320 395 305 393 Z" fill="#FF7771"/>
</svg>
